PathFileType	4	(X / Y / Z)	Demo_140508_11_September_2019	Demo_140508_11_September_2019.trc
DataRate	CameraRate	NumFrames	NumMarkers	Units	OrigDataRate	OrigDataStartFrame	OrigNumFrames
50	50	8	25	m	50	946	3585
Frame#	Time		SpineBase		SpineMid		Neck		Head		ShoulderLeft		ElbowLeft		WristLeft		HandLeft		ShoulderRight		ElbowRight		WristRight		HandRight		HipLeft		KneeLeft		AnkleLeft		FootLeft		HipRight		KneeRight		AnkleRight		FootRight		SpineShoulder		HandTipLeft		LeftThumb		HandTipRight		ThumbRight		
X1	Y1	Z1	X2	Y2	Z2	X3	Y3	Z3	X4	Y4	Z4	X5	Y5	Z5	X6	Y6	Z6	X7	Y7	Z7	X8	Y8	Z8	X9	Y9	Z9	X10	Y10	Z10	X11	Y11	Z11	X12	Y12	Z12	X13	Y13	Z13	X14	Y14	Z14	X15	Y15	Z15	X16	Y16	Z16	X17	Y17	Z17	X18	Y18	Z18	X19	Y19	Z19	X20	Y20	Z20	X21	Y21	Z21	X22	Y22	Z22	X23	Y23	Z23	X24	Y24	Z24	X25	Y25	Z25	
897	34.536	0.069	0.801	1.818	0.068	1.083	1.786	0.068	1.358	1.743	0.070	1.498	1.708	-0.077	1.253	1.736	-0.137	0.983	1.758	-0.208	0.773	1.730	-0.188	0.722	1.744	0.273	1.301	1.747	0.496	1.324	1.721	0.713	1.356	1.717	0.757	1.352	1.719	-0.001	0.805	1.779	-0.064	0.511	1.807	-0.072	0.209	1.897	-0.067	0.170	1.767	0.135	0.804	1.788	0.131	0.516	1.822	0.107	0.220	1.922	0.108	0.179	1.800	0.068	1.290	1.755	-0.182	0.682	1.739	-0.163	0.738	1.721	0.775	1.341	1.710	0.746	1.363	1.712
898	34.552	0.069	0.801	1.818	0.068	1.083	1.786	0.068	1.358	1.743	0.070	1.498	1.708	-0.077	1.253	1.736	-0.137	0.983	1.758	-0.208	0.773	1.730	-0.188	0.722	1.744	0.273	1.301	1.747	0.496	1.324	1.721	0.713	1.356	1.717	0.757	1.352	1.719	-0.001	0.805	1.779	-0.064	0.511	1.807	-0.072	0.209	1.897	-0.067	0.170	1.767	0.135	0.804	1.788	0.131	0.516	1.822	0.107	0.220	1.922	0.108	0.179	1.800	0.068	1.290	1.755	-0.182	0.682	1.739	-0.163	0.738	1.721	0.775	1.341	1.710	0.746	1.363	1.712
899	34.569	0.069	0.801	1.818	0.068	1.083	1.786	0.068	1.358	1.743	0.070	1.498	1.708	-0.077	1.253	1.736	-0.137	0.983	1.758	-0.208	0.773	1.730	-0.188	0.722	1.744	0.273	1.301	1.747	0.496	1.324	1.721	0.713	1.356	1.717	0.757	1.352	1.719	-0.001	0.805	1.779	-0.064	0.511	1.807	-0.072	0.209	1.897	-0.067	0.170	1.767	0.135	0.804	1.788	0.131	0.516	1.822	0.107	0.220	1.922	0.108	0.179	1.800	0.068	1.290	1.755	-0.182	0.682	1.739	-0.163	0.738	1.721	0.775	1.341	1.710	0.746	1.363	1.712
900	34.586	0.069	0.801	1.818	0.068	1.083	1.786	0.068	1.358	1.743	0.070	1.498	1.708	-0.077	1.253	1.736	-0.137	0.983	1.758	-0.208	0.773	1.730	-0.188	0.722	1.744	0.273	1.301	1.747	0.496	1.324	1.721	0.713	1.356	1.717	0.757	1.352	1.719	-0.001	0.805	1.779	-0.064	0.511	1.807	-0.072	0.209	1.897	-0.067	0.170	1.767	0.135	0.804	1.788	0.131	0.516	1.822	0.107	0.220	1.922	0.108	0.179	1.800	0.068	1.290	1.755	-0.182	0.682	1.739	-0.163	0.738	1.721	0.775	1.341	1.710	0.746	1.363	1.712
901	34.602	0.070	0.800	1.820	0.070	1.083	1.787	0.069	1.358	1.743	0.071	1.498	1.708	-0.076	1.253	1.736	-0.134	0.983	1.758	-0.206	0.773	1.731	-0.185	0.720	1.743	0.268	1.278	1.749	0.480	1.184	1.742	0.687	1.109	1.747	0.725	1.123	1.749	0.001	0.804	1.781	-0.063	0.510	1.809	-0.072	0.209	1.896	-0.066	0.171	1.767	0.136	0.802	1.791	0.130	0.515	1.822	0.107	0.220	1.922	0.109	0.179	1.800	0.069	1.290	1.756	-0.179	0.680	1.740	-0.161	0.736	1.722	0.744	1.080	1.757	0.718	1.155	1.739
902	34.619	0.070	0.800	1.820	0.070	1.083	1.787	0.069	1.358	1.743	0.071	1.498	1.708	-0.076	1.253	1.736	-0.134	0.983	1.758	-0.206	0.773	1.731	-0.185	0.720	1.743	0.268	1.278	1.749	0.480	1.184	1.742	0.687	1.109	1.747	0.725	1.123	1.749	0.001	0.804	1.781	-0.063	0.510	1.809	-0.072	0.209	1.896	-0.066	0.171	1.767	0.136	0.802	1.791	0.130	0.515	1.822	0.107	0.220	1.922	0.109	0.179	1.800	0.069	1.290	1.756	-0.179	0.680	1.740	-0.161	0.736	1.722	0.744	1.080	1.757	0.718	1.155	1.739
903	34.636	0.072	0.797	1.822	0.071	1.082	1.788	0.071	1.357	1.743	0.072	1.498	1.708	-0.076	1.253	1.736	-0.132	0.983	1.759	-0.205	0.772	1.732	-0.184	0.719	1.743	0.263	1.261	1.750	0.452	1.079	1.756	0.649	0.952	1.770	0.665	0.922	1.780	0.003	0.803	1.783	-0.061	0.509	1.810	-0.071	0.208	1.896	-0.066	0.171	1.767	0.138	0.799	1.794	0.129	0.514	1.823	0.107	0.220	1.923	0.109	0.179	1.801	0.071	1.290	1.756	-0.176	0.679	1.740	-0.160	0.735	1.723	0.685	0.859	1.811	0.669	0.966	1.770
904	34.653	0.072	0.797	1.822	0.071	1.082	1.788	0.071	1.357	1.743	0.072	1.498	1.708	-0.076	1.253	1.736	-0.132	0.983	1.759	-0.205	0.772	1.732	-0.184	0.719	1.743	0.263	1.261	1.750	0.452	1.079	1.756	0.649	0.952	1.770	0.665	0.922	1.780	0.003	0.803	1.783	-0.061	0.509	1.810	-0.071	0.208	1.896	-0.066	0.171	1.767	0.138	0.799	1.794	0.129	0.514	1.823	0.107	0.220	1.923	0.109	0.179	1.801	0.071	1.290	1.756	-0.176	0.679	1.740	-0.160	0.735	1.723	0.685	0.859	1.811	0.669	0.966	1.770
